<?xml version="1.0" encoding="utf-8"?>
<!-- Generator: Adobe Illustrator 16.2.1, SVG Export Plug-In . SVG Version: 6.00 Build 0)  -->
<!DOCTYPE svg PUBLIC "-//W3C//DTD SVG 1.1//EN" "http://www.w3.org/Graphics/SVG/1.1/DTD/svg11.dtd">
<svg version="1.1" id="Layer_1" xmlns="http://www.w3.org/2000/svg" xmlns:xlink="http://www.w3.org/1999/xlink" x="0px" y="0px"
	 width="120px" height="120px" viewBox="0 0 120 120" enable-background="new 0 0 120 120" xml:space="preserve">
<circle fill="#F8F9F3" cx="60.167" cy="60" r="60"/>
<circle fill="#222222" cx="78.307" cy="42.01" r="4.233"/>
<path fill="#222222" d="M74.377,26.288H45.956c-10.727,0-19.502,8.776-19.502,19.501v28.422c0,10.726,8.775,19.501,19.502,19.501
	h28.421c10.727,0,19.502-8.775,19.502-19.501V45.79C93.879,35.064,85.104,26.288,74.377,26.288z M87.227,75.723
	c0,6.236-5.102,11.338-11.338,11.338H44.444c-6.236,0-11.338-5.102-11.338-11.338V44.278c0-6.236,5.102-11.338,11.338-11.338h31.444
	c6.236,0,11.338,5.103,11.338,11.338V75.723z"/>
<path fill="#222222" d="M60.167,42.615c-9.603,0-17.386,7.784-17.386,17.386c0,9.602,7.783,17.386,17.386,17.386
	c9.602,0,17.385-7.784,17.385-17.386C77.552,50.399,69.769,42.615,60.167,42.615z M60.167,71.49c-6.347,0-11.49-5.144-11.49-11.49
	c0-6.345,5.144-11.49,11.49-11.49c6.346,0,11.489,5.145,11.489,11.49C71.656,66.347,66.513,71.49,60.167,71.49z"/>
</svg>
