<?xml version="1.0" encoding="utf-8"?>
<!-- Generator: Adobe Illustrator 16.2.1, SVG Export Plug-In . SVG Version: 6.00 Build 0)  -->
<!DOCTYPE svg PUBLIC "-//W3C//DTD SVG 1.1//EN" "http://www.w3.org/Graphics/SVG/1.1/DTD/svg11.dtd">
<svg version="1.1" id="Layer_1" xmlns="http://www.w3.org/2000/svg" xmlns:xlink="http://www.w3.org/1999/xlink" x="0px" y="0px"
	 width="120px" height="120px" viewBox="0 0 120 120" enable-background="new 0 0 120 120" xml:space="preserve">
<circle fill="#F8F9F3" cx="60" cy="60" r="60"/>
<g id="g16">
	<path id="path22" fill="#222222" d="M95.775,38.74c-2.548,1.131-5.288,1.895-8.161,2.24c2.933-1.76,5.186-4.545,6.247-7.864
		c-2.746,1.629-5.787,2.812-9.026,3.448c-2.59-2.761-6.286-4.488-10.374-4.488c-7.85,0-14.212,6.363-14.212,14.213
		c0,1.115,0.124,2.2,0.368,3.239C48.803,48.937,38.33,43.277,31.32,34.678c-1.224,2.099-1.925,4.54-1.925,7.146
		c0,4.931,2.509,9.281,6.324,11.832c-2.33-0.073-4.522-0.713-6.44-1.778c-0.001,0.061-0.001,0.119-0.001,0.179
		c0,6.888,4.9,12.631,11.402,13.936c-1.192,0.326-2.448,0.499-3.743,0.499c-0.917,0-1.807-0.087-2.676-0.253
		c1.81,5.646,7.059,9.754,13.278,9.871c-4.869,3.812-10.995,6.083-17.656,6.083c-1.146,0-2.278-0.067-3.391-0.197
		c6.292,4.032,13.762,6.384,21.79,6.384c26.143,0,40.438-21.657,40.438-40.441c0-0.615-0.014-1.228-0.039-1.837
		c2.775-2.005,5.186-4.508,7.091-7.359"/>
</g>
</svg>
